<svg width="130.000000" height="130.000000" viewBox="0 0 130 130" fill="none" xmlns="http://www.w3.org/2000/svg" xmlns:xlink="http://www.w3.org/1999/xlink">
	<desc>
			Created with Pixso.
	</desc>
	<defs/>
	<path id="Vector" d="M0 0L130 0L130 130L0 130L0 0Z" fill="#FFFFFF" fill-opacity="1.000000" fill-rule="evenodd"/>
	<path id="Vector" d="M23.04 72.4C22.04 72.4 21.25 73.1 21.25 74.13C21.25 75.15 22.04 75.85 23.04 75.85C24.04 75.85 24.83 75.15 24.83 74.13C24.83 73.1 24.05 72.4 23.04 72.4ZM23.04 75.36C22.33 75.36 21.8 74.83 21.8 74.13C21.8 73.42 22.32 72.9 23.04 72.9C23.75 72.9 24.29 73.43 24.29 74.13C24.29 74.82 23.75 75.36 23.04 75.36ZM40.45 66.36L31.74 66.36L32.73 51.22L27.08 66.36L18.99 66.36L31.82 32.14L40.43 32.14L39.44 47.49L45.2 32.14L53.29 32.14L40.45 66.36ZM41.5 66.36L54.34 32.14L62.43 32.14L49.59 66.36L41.5 66.36Z" fill="#000000" fill-opacity="1.000000" fill-rule="evenodd"/>
	<path id="Vector" d="M18.06 54.57C6.75 67.84 -3.91 85.5 5.51 93.64C14.63 101.52 26.04 96.85 33.82 93.74C41.6 90.63 127.56 53.3 127.56 53.3C128.39 52.88 128.24 52.36 127.2 52.62C126.78 52.73 33.61 77.98 33.61 77.98C21.79 81.3 8.31 74.06 18.06 54.57Z" fill="#000000" fill-opacity="1.000000" fill-rule="evenodd"/>
	<path id="Vector" d="M23.35 74.25C23.6 74.24 23.8 74.11 23.8 73.76C23.8 73.31 23.5 73.2 23.01 73.2L22.31 73.2L22.31 75.06L22.78 75.06L22.78 74.27L22.86 74.27L23.29 75.06L23.82 75.06L23.35 74.25ZM23.05 73.95L22.78 73.95L22.78 73.52L23.01 73.52C23.14 73.52 23.3 73.53 23.3 73.71C23.3 73.91 23.21 73.95 23.05 73.95ZM104.35 32.04C103.35 32.04 102.56 32.74 102.56 33.77C102.56 34.79 103.35 35.49 104.35 35.49C105.35 35.49 106.14 34.78 106.14 33.77C106.14 32.74 105.36 32.04 104.35 32.04ZM104.35 35C103.64 35 103.11 34.47 103.11 33.77C103.11 33.06 103.63 32.53 104.35 32.53C105.06 32.53 105.6 33.07 105.6 33.77C105.6 34.46 105.06 35 104.35 35Z" fill="#000000" fill-opacity="1.000000" fill-rule="evenodd"/>
	<path id="Vector" d="M104.66 33.89C104.91 33.87 105.11 33.74 105.11 33.4C105.11 32.95 104.81 32.84 104.32 32.84L103.62 32.84L103.62 34.69L104.09 34.69L104.09 33.9L104.17 33.9L104.59 34.69L105.13 34.69L104.66 33.89ZM104.36 33.59L104.09 33.59L104.09 33.15L104.31 33.15C104.45 33.15 104.61 33.17 104.61 33.35C104.61 33.54 104.52 33.59 104.36 33.59ZM99.02 37.85L101.2 32.14L76.52 32.14L68.04 42.41L71.95 32.14L63.76 32.14L51.03 66.36L59.12 66.36L64.55 52.05L64.93 66.36L89.75 66.31L92.11 59.73L82.67 59.73L85.77 51.43L93.55 51.43L95.94 45.05L88.17 45.05L90.83 37.85L99.02 37.85ZM72.95 64.08L72.43 46.25L84.66 32.82L72.95 64.08Z" fill="#000000" fill-opacity="1.000000" fill-rule="evenodd"/>
</svg>
